<svg id="Layer_2_copy" data-name="Layer 2 copy" xmlns="http://www.w3.org/2000/svg" xmlns:xlink="http://www.w3.org/1999/xlink" viewBox="0 0 1366 768"><defs><style>.cls-1,.cls-3{fill:#fff;}.cls-1{opacity:0.1;}.cls-2{fill:url(#radial-gradient);}</style><radialGradient id="radial-gradient" cx="683" cy="384" r="554.05" gradientUnits="userSpaceOnUse"><stop offset="0" stop-color="#ff931e"/><stop offset="0.43" stop-color="#ff931e"/></radialGradient></defs><title>Artboard 1</title><path class="cls-1" d="M683-1070C-23.92-1070-597-496.92-597,210S-23.92,1490,683,1490,1963,916.92,1963,210,1389.92-1070,683-1070Zm0,1360a80,80,0,1,1,80-80A80,80,0,0,1,683,290Z"/><rect class="cls-2" width="1366" height="768"/><path class="cls-1" d="M683-430C329.54-430,43-143.46,43,210S329.54,850,683,850s640-286.54,640-640S1036.46-430,683-430Zm0,720a80,80,0,1,1,80-80A80,80,0,0,1,683,290Z"/><path class="cls-1" d="M683,50A160,160,0,1,0,843,210,160,160,0,0,0,683,50Zm0,240a80,80,0,1,1,80-80A80,80,0,0,1,683,290Z"/><path class="cls-1" d="M683-110C506.27-110,363,33.27,363,210S506.27,530,683,530s320-143.27,320-320S859.73-110,683-110Zm0,400a80,80,0,1,1,80-80A80,80,0,0,1,683,290Z"/><path class="cls-3" d="M725,200.63h-8a3.5,3.5,0,0,0-3.5,3.5,30.53,30.53,0,0,1-30.5,30.5q-.79,0-1.57,0a30.48,30.48,0,0,1-28.93-30.46v-3H678a3.5,3.5,0,0,0,3.5-3.5v-8a3.5,3.5,0,0,0-3.5-3.5H652.5v-11.5a3.5,3.5,0,0,0-3.5-3.5h-8a3.5,3.5,0,0,0-3.5,3.5v29.5a45.5,45.5,0,0,0,91,0A3.5,3.5,0,0,0,725,200.63Z"/></svg>