<svg xmlns="http://www.w3.org/2000/svg" xmlns:xlink="http://www.w3.org/1999/xlink" viewBox="0 0 160 160"><defs><style>.cls-1{opacity:0.1;fill:url(#radial-gradient);}.cls-2{fill:url(#radial-gradient-2);}</style><radialGradient id="radial-gradient" cx="80" cy="80" r="80" gradientUnits="userSpaceOnUse"><stop offset="0" stop-color="#ff931e"/><stop offset="0.43" stop-color="#ff931e"/></radialGradient><radialGradient id="radial-gradient-2" cy="91" r="42.49" xlink:href="#radial-gradient"/></defs><title>Asset 2</title><g id="Layer_2" data-name="Layer 2"><g id="Layer_2_copy" data-name="Layer 2 copy"><circle class="cls-1" cx="80" cy="80" r="80"/><path class="cls-2" d="M122,81.25h-8a3.5,3.5,0,0,0-3.5,3.5A30.53,30.53,0,0,1,80,115.25q-.79,0-1.57,0A30.48,30.48,0,0,1,49.5,84.75v-3H75a3.5,3.5,0,0,0,3.5-3.5v-8a3.5,3.5,0,0,0-3.5-3.5H49.5V55.25a3.5,3.5,0,0,0-3.5-3.5H38a3.5,3.5,0,0,0-3.5,3.5v29.5a45.5,45.5,0,0,0,91,0A3.5,3.5,0,0,0,122,81.25Z"/></g></g></svg>