<svg xmlns="http://www.w3.org/2000/svg" xmlns:xlink="http://www.w3.org/1999/xlink" viewBox="0 0 160 160"><defs><style>.cls-1{fill:url(#radial-gradient);}</style><radialGradient id="radial-gradient" cx="80" cy="80" r="80" gradientUnits="userSpaceOnUse"><stop offset="0" stop-color="#ff931e"/><stop offset="0.43" stop-color="#ff931e"/></radialGradient></defs><title>Asset 3</title><g id="Layer_2" data-name="Layer 2"><g id="Layer_2_copy" data-name="Layer 2 copy"><path class="cls-1" d="M80,0a80,80,0,1,0,80,80A80,80,0,0,0,80,0Zm0,130.25a45.55,45.55,0,0,1-45.5-45.5V55.25a3.5,3.5,0,0,1,3.5-3.5h8a3.5,3.5,0,0,1,3.5,3.5v11.5H75a3.5,3.5,0,0,1,3.5,3.5v8a3.5,3.5,0,0,1-3.5,3.5H49.5v3a30.48,30.48,0,0,0,28.93,30.46q.78,0,1.57,0a30.53,30.53,0,0,0,30.5-30.5,3.5,3.5,0,0,1,3.5-3.5h8a3.5,3.5,0,0,1,3.5,3.5A45.55,45.55,0,0,1,80,130.25Z"/></g></g></svg>